<svg xmlns="http://www.w3.org/2000/svg" viewBox="0 0 2016.8 550"><defs><style>.cls-1,.cls-2{fill:#3063b5;}.cls-1,.cls-4,.cls-5{fill-rule:evenodd;}.cls-3{fill:#e3e3e3;opacity:0.2;}.cls-5{fill:#0e0500;}.cls-6{fill:#fdfcfc;}</style></defs><title>Full Logo</title><g id="Layer_2" data-name="Layer 2"><g id="Layer_14" data-name="Layer 14"><circle cx="275" cy="275" r="275"/><path class="cls-1" d="M520.58,276.1q0,6-.3,11.92c-.11,2.49-.27,5-.47,7.44q-.8,10.33-2.45,20.42a241.88,241.88,0,0,1-5.17,24.06q-1.19,4.42-2.54,8.77c-1.55,5.08-3.29,10.08-5.16,15q-3.66,9.55-8.07,18.71-4.8,10-10.46,19.45-4.82,8.07-10.24,15.75c-1.48,2.1-3,4.17-4.54,6.21q-4.14,5.5-8.6,10.76-2.29,2.73-4.68,5.38c-.84.94-1.7,1.88-2.55,2.8-.7.75-1.39,1.5-2.11,2.24q-1.53,1.63-3.11,3.23-3,3-6.1,6a244.34,244.34,0,0,1-19.19,16.44q-5.57,4.32-11.41,8.29c-1.17.82-2.36,1.61-3.55,2.39q-3.32,2.19-6.7,4.26A243.66,243.66,0,0,1,304,520q-4,.47-8.12.82-8,.67-16.06.83l-1.89,0-.84,0H275a245.94,245.94,0,0,1-26.76-1.46q-5.56-.59-11.05-1.45-3.72-.57-7.4-1.26-2.6-.49-5.19-1l-.71-.15a240.43,240.43,0,0,1-24.14-6.41q-7.26-2.33-14.3-5.1-5.1-2-10.09-4.21a242.79,242.79,0,0,1-22.22-11.26c-1.06-.61-2.12-1.22-3.16-1.85q-10.1-6-19.56-12.89-8.1-5.92-15.7-12.47-6.27-5.4-12.17-11.22c-1.83-1.8-3.62-3.64-5.39-5.5a245.81,245.81,0,0,1-26.31-32.84q-2.64-4-5.15-8a243.57,243.57,0,0,1-15.11-28.66c-.45-1-.88-2-1.31-3s-.93-2.18-1.38-3.28q-3.72-9-6.71-18.32c-.11-.34-.23-.7-.33-1-.39-1.23-.77-2.47-1.14-3.71q-1.56-5.17-2.87-10.43-1.67-6.63-3-13.42c-.35-1.84-.69-3.7-1-5.55-.42-2.51-.81-5-1.15-7.57s-.65-5-.91-7.57c-.07-.63-.13-1.27-.19-1.91-.25-2.5-.46-5-.61-7.54q-.56-8.16-.55-16.45,0-7.7.46-15.28a244.5,244.5,0,0,1,5-36.39c.32-1.51.66-3,1-4.5q.77-3.33,1.65-6.62,1.2-4.59,2.58-9.1,1.33-4.33,2.8-8.59,1.93-5.57,4.12-11,2.94-7.32,6.34-14.41c1.07-2.23,2.16-4.43,3.3-6.62q5.17-10,11.24-19.5a244.76,244.76,0,0,1,20.55-27.69c.92-1.09,1.85-2.15,2.81-3.22q4.37-4.95,9-9.65,2.67-2.72,5.43-5.33l.7-.67c.86-.8,1.72-1.6,2.58-2.39q6.62-6.07,13.66-11.65,2.27-1.8,4.58-3.54t4.9-3.59q3.64-2.62,7.39-5.1,9.33-6.17,19.23-11.51,7.66-4.13,15.65-7.72c1.88-.85,3.78-1.68,5.69-2.48a245.24,245.24,0,0,1,91.42-19l3.46,0a248.47,248.47,0,0,1,27.7,1.54l1.85.22c2.13.26,4.24.53,6.35.86,3.09.45,6.16,1,9.2,1.52q6.23,1.14,12.35,2.62,5.55,1.31,11,2.9a244.37,244.37,0,0,1,56,24.13c1.79,1.06,3.57,2.14,5.35,3.24q3.62,2.27,7.17,4.65T418.84,77q8.56,6.2,16.55,13.1c2.71,2.33,5.36,4.74,8,7.17A248.13,248.13,0,0,1,462.93,118q7.4,8.78,14,18.24,2.42,3.47,4.69,7c.81,1.25,1.6,2.5,2.38,3.76.24.39.49.78.72,1.18l1.63,2.7q5.33,9,9.92,18.47l0,.08q4.43,9.18,8.12,18.76c1.23,3.24,2.41,6.51,3.51,9.8q1.53,4.54,2.87,9.16h0q1.74,6,3.19,12.08,1,4,1.78,8.15c.3,1.47.58,2.93.84,4.4q1.7,9.3,2.69,18.85.81,7.92,1.11,16Q520.58,271.35,520.58,276.1Z" transform="translate(0 -1.09)"/><circle class="cls-2" cx="275.46" cy="275" r="205.68"/><path class="cls-3" d="M478.82,391.88c-.33-.75-.65-1.52-1-2.28-.94-2.42-1.65-4.9-2.42-7.38-.07-.2-.23-.87-.32-1.26-.14-.73-.29-1.47-.41-2.2a93.49,93.49,0,0,1-1.1-9.36c0-.6-.07-1.19-.1-1.79,0-.45,0-1.78,0-2.28q0-3.6.24-7.18c.28-4.75.78-9.5,1.44-14.22.1-.52.43-2.68.5-3.09.18-1,.37-2.09.56-3.13.53-3,1.11-5.95,1.7-8.91,1.16-6,2.37-11.91,3.44-17.88,2.25-12.57,4.26-25.34,4.18-38.14-.13-23.4-6.06-45.45-18.67-65.27-2.45-3.85-1.83-6.29-1.69-10.86.14-4.76.41-7.15,4.17-10.22,8.26-6.76,17.45-12.12,26.93-17l0-.08q-4.57-9.46-9.92-18.47c-15.83,9.46-31.08,21.54-40.2,21-8.38-.54-16.37-4-23.21-8.74-17.75-12.26-37.78-9.08-47.3-28.42-2.59-5.27-7.17-13.64-6.33-19.46a187.24,187.24,0,0,0-2.53-67,242.55,242.55,0,0,0-23.34-8.06q-5.43-1.59-11-2.9-6.12-1.47-12.35-2.62c-3-.56-6.12-1.08-9.2-1.52a390.16,390.16,0,0,1-30.34,32.54c-6.41,6.12-13.3,12.22-22,14.63-9.23,2.57-17.64-1.06-26.72-3.59-9.64-2.69-19.13-4.29-29.11-3.1a65,65,0,0,0-25.3,8.66c-14.64,8.44-12.3,31.35-28.59,35.3C138.17,120.17,129,97.4,127.26,79.92q-2.32,1.74-4.58,3.54Q115.63,89,109,95.12a67.2,67.2,0,0,0,9.93,27c3.41,5.31,2.66,9.52.37,15.39-3,7.66-25.69,7.63-51.39,6.59q-6.06,9.46-11.24,19.5c32-4.22,56.77-10.11,60.72-2.78a7.57,7.57,0,0,1-2.49,10.42c-12.31,8.5-18.83,7.86-31.54,15.63-10.6,6.48-20.43,16.62-22.71,29.24-2.57,14.18,6.26,27.5,5.53,41.74-.5,9.95-5.94,21.93-13.56,28.39A216.42,216.42,0,0,1,30.79,302q.4,3.82.91,7.57c.34,2.54.73,5.07,1.15,7.57.31,1.86.65,3.72,1,5.55q1.3,6.77,3,13.42,1.32,5.26,2.87,10.43c.37,1.24,4.51,13.46,4.9,14.68,28.31-41.87,92.37-76,99.39-55,3.74,11.22-9.06,19.94-11.09,31.77-1.44,8.38-1.17,17.21,2.12,25.13,3,7.3,9,13.87,9.68,22,1.18,14.11-12.15,25.84-20.85,35.1-8.54,9.11-16.73,19.07-21.31,30.65q5.89,5.82,12.17,11.22a13.55,13.55,0,0,0,.92-3.12c2-13,12.65-22.3,21.36-31.56,11-11.64,21.61-25.77,23.93-42.06a39.59,39.59,0,0,0-3.75-23.88c-3.19-6.49-7.67-12.24-8.33-19.68-1-11.57,5.46-25.95,12.88-27.56,5.91-1.28,15.13,8.53,17,10.59.2.22,24.72,36.06,23.51,50-.61,7,.91,12.81-2,19.35-7.09,15.76-5.49,34.85,5.84,48.34,8.81,10.5,21.43,14.87,33.3,20.82a103.55,103.55,0,0,1,15.91,9.79c4.54,3.39,18.09,20.23,20.35,29.37,1.23,5,1.11,13.53,2.35,19.12L304,520c.85-4.69,1.18-10,3-15.54,9.33-28.16,39.23-44.38,64.25-60.36,12.09-7.73,25.32-13.25,39.61-15.07a136.35,136.35,0,0,1,26.68-.79c8.78.51,16.85,3.55,25,6.39q4.46-5.25,8.6-10.76c1.54-2,3.06-4.12,4.54-6.21Q481.12,410,486,401.87c-2.36-2.8-4.74-5.44-5.71-7.19C480.24,394.66,478.89,391.91,478.82,391.88ZM207,108.65c9.81-4.06,29.59-.37,38.63,2.14,10.79,3,22,5.06,33,2,9.5-2.65,18-8.86,25.13-15.44C318.43,83.93,333.69,68,343.22,69c18.11,1.81,10.39,40.47.23,70.16a25.75,25.75,0,0,0-2.12,5.84,176.2,176.2,0,0,1-8.94,19.72c-9.8,18.48-23.86,33.41-36.73,49.61a148.52,148.52,0,0,1-46-5.92c-8.23-2.42-17.72-5.11-24.73-10.22s-7.46-12.35-8.28-20.4c-.9-8.81-3.18-16.49-9-23.36-5.09-6.06-16.24-9-16.26-22.29A24.85,24.85,0,0,1,207,108.65ZM242.92,329c-2.65-3.79-5.46-11-5.44-15.74,0-4.22,3-14.81,3.51-19,.32-2.71,3.91-13.7,8.85-19.53,3.56-4.2,12.33-11.49,15.24-8.57s10.51,10.1,8.9,19c-5.25,29.06,13.23,61.85,4.85,71-3.56,3.89-7.68,8.94-12.61,10.16-5.82,1.44-11.51.51-14.48-4-2.21-3.33-3.92-6.94-3.13-12.46C249.78,341.93,247.47,335.57,242.92,329Zm-78.83-51.39c-5.55,1.62-12,1.26-17.73-.34-21.5-6-56.52,1.24-62.3-5.37-6.67-7.62-4.83-26.4-8.56-40.12-1.92-7.12-3.35-14.41-.3-21.43,2.62-6,7.62-10.69,13.06-14.21,12.77-8.24,27.68-12.35,40.34-21,7.87-5.35,16.29-11,25-14.77,8.38-3.65,26.88,0,34,5.85,6.67,5.51,9.7,11.88,10.6,20.41.93,8.93,1.59,18,7.93,25,6.11,6.75,16.06,10.21,24.44,13.08,12.62,4.32,26.41,4.43,26.47,10.38.07,7.39-3.43,8.74-8.11,11.08-5.72,2.86-18.59,8-23.23,9.13-12.2,3-23.88-3.07-35.81,1.48C177.17,261.64,176.68,274,164.09,277.65Zm37.58,41.18c-5-7.55-11.62-12.39-12.81-21.17-1.14-8.51,1.07-16.23,9.33-19.5,6-2.35,14.76-4,19.32-2.52,7.19,2.25,16.22,12.57,10.7,31.44-1.75,6-.43,14.71,2.08,20.61,2.63,6.16,3.35,16.12.63,22.51-2.53,6-9.9,3.35-14.9-4.17C212.76,341.1,205.47,324.54,201.67,318.83Zm84.82,188.6c-.32-1.08,1.31-.93,0,0Zm12.26-47.66c-8.59,1.23-7.93,2.18-16.71-1.3-12.9-5.11-53.28-8.94-66.27-28.11-4.19-6.18-9.35-29.31,2.71-34.33,7.67-3.19,13.89-.88,21.4-3.67,7.14-2.66,12.81-10.32,24.27-11.59,15.81-1.76,23.32-.61,31.46,6.24,7.84,6.59,7.17,34.27,7.51,44.79C303.67,449.33,305.42,458.81,298.75,459.76Zm115.93-56.34c-1.46,6.57-4.92,8.59-11.07,9.61a103.89,103.89,0,0,0-39.93,16.05c-19.6,12.82-30.17,23-38.36,16.6-5.15-4-5.93-1.66-7-16-.84-10.84-1.76-21.78-3.35-33.7-.63-4.74-1.61-16.85-.16-22,1.09-3.91,4.53-8.2,8-10.94,5.78-4.55,16.51-5.9,24.39-6.5a79.3,79.3,0,0,1,20.65.87,76.7,76.7,0,0,1,20.42,6.1c7.93,3.86,12.69,9.37,17.87,16.08C413.93,389.74,416.59,394.84,414.68,403.42Zm45.26-87.8c-2.29,11.81-5.93,23.36-7.55,35.29-1.84,13.58-3.45,13.82-10.41,15.85-3.83,1.12-8.14,1.17-17-12.21-9.73-14.74-33.29-19.67-51.78-21.29-17.72-1.55-25-.65-42.53,3.9C316,341,308.44,345.75,302.16,344c-12-3.4-16.14-27.25-15.42-45.89.91-23.82,8.82-44.77,23.45-63.53,14-18,14.47-30.44,25.43-50.68,1.82-3.38,11.23-10.52,18.5-11.5,9.79-1.32,21.27,3.7,36.92,13.89,6.87,4.46,13.76,13,15.48,20.61,1.53,6.79.68,13.19-6,15.09-7.83,2.24-15.16-.28-23.7,13.85-4,6.68-3.46,9-7,15.86-1.55,3-4.1,7.47-6.67,9.71a14.62,14.62,0,0,1-5.83,2.71c-4.36.22-13.88-1.6-14.56.42-1,2.86,9.55,4.88,14.46,5.21,13.28.89,18.34.21,29.9-11.35,6.67-6.67,8.21-9.32,13.45-13.78,5.39-4.58,14.81-6.41,19.33-7.22,7.43-1.32,20.28-2.8,25.07-1.88,6.55,1.26,12.63,15.16,14.49,21.8,3.4,12.1,4.79,22.7,4.79,30.54C464.25,296.69,460.58,312.34,459.94,315.62Z" transform="translate(0 -1.09)"/><path class="cls-4" d="M51,379.42c-4.91-17.81-7.39-44.8,9.2-60.8,14.64-14.12,32.4-25.73,62.89-25.73,21.61,0,52.44,17.57,65.74,35.25,9.4,12.5,17.85,26.79,30,36.58,11.05,8.92,16.89,7.9,16.89,7.9s-5,.66-15-9c-10.77-10.4-17.42-25.46-23.26-34.52-9.29-14.42-28.08-41.55-68.47-49.39C94.62,273,66.49,291.06,51.63,299.78c-15.92,9.34-39.39,32.84-39.39,32.84Z" transform="translate(0 -1.09)"/><path class="cls-5" d="M282,234.86s-5.08,14.38-7.35,18.92c-1.13,2.27-5.35,8.6-5.35,8.6a68.51,68.51,0,0,1-10.94,12.29c-6.52,5.62-13.66,10.49-13.66,10.49s10-2.79,15.69-6.14c3.66-2.15,9.67-7.09,11.35-7.15,2.28-.21,2.35,6.26,2.73,10.25.53,5.65,6.85,20.08,6.65,19-1.57-8.58-3.25-21-1.12-31.25.95-4.59,11.29-33.09,11.29-33.09l-9.3-1.94" transform="translate(0 -1.09)"/><path class="cls-4" d="M483.3,145.5C454,103.62,440,93.32,426.25,82.62c-29.87-23.2-55.9.65-67.49,24-2.52,5.08-6.66,17.15-8.22,21.15s-.66,8.78-.19,14.75,9.08,20.77,3.93,33.61-8,18.27-17.5,29.26-11,12.8-15.72,18.68-8.81,10.65-14.85,13.67c-6.36,3.17-10.43,6.88-20.66,2.91-9.84-3.82-10.66-9.44-13.2-16.07-2.43-6.31-2.15-12.56-1.68-20.09s.57-9.87,1-24.41,1.91-20.48,6.78-33.43,20.07-16.41,24.43-20.5a40.15,40.15,0,0,0,9.48-13.38c1.55-4,5.58-16.12,8.22-21.15,11.86-22.66,23.83-42.09,58.17-50.84,14.83-3.78,23.63.42,48.15,15.67,12.78,7.94,52.73,51.85,54.7,59.91" transform="translate(0 -1.09)"/><circle class="cls-6" cx="434.51" cy="202.02" r="24.66" transform="translate(-36.9 115.01) rotate(-14.61)"/><circle class="cls-6" cx="356.75" cy="294.32" r="20" transform="translate(-62.69 98.38) rotate(-14.61)"/><circle class="cls-6" cx="258.21" cy="74.74" r="30.87" transform="translate(-10.5 66.43) rotate(-14.61)"/><circle class="cls-6" cx="316.89" cy="461.62" r="43.48" transform="translate(-106.16 93.73) rotate(-14.61)"/><circle class="cls-6" cx="125.57" cy="256.82" r="34.67" transform="translate(-60.7 38.87) rotate(-14.61)"/><path d="M757.82,105.5l-13,68.5h52l-10.5,54.5h-52l-16.5,83c-2,10-4,22.5-4,31,0,12,5,20.5,20.5,20.5,6.5,0,13.5,0,20-1l-8.5,56.5c-9,3.5-27,5.5-42.5,5.5-43,0-63.5-22-63.5-52.5,0-13.5,1.5-27,5-45.5l19-97.5h-31l10-54.5h31.5l10-51.5Z" transform="translate(0 -1.09)"/><path d="M951.82,418.5c.5-14.5,2-31,3.5-48.5h-1.5c-22.5,40.5-53.5,54-82,54-44,0-74-34-74-85,0-82.5,54.5-170.5,175-170.5,29,0,60.5,5.5,81,12l-26,128c-6,31.5-10.5,79.5-9.5,110Zm21-193.5a111.49,111.49,0,0,0-19.5-2c-46.5,0-80.5,57-80.5,102.5,0,24,9.5,40.5,29.5,40.5,21.5,0,48-24.5,59-84.5Z" transform="translate(0 -1.09)"/><path d="M1071.31,418.5l46.5-244.5h72l-46.5,244.5Zm56.5-310c.5-24.5,19.5-41,41.5-41,21,0,36,14,36,35.5,0,25.5-19.5,40.5-42.5,40.5C1142.81,143.5,1127.81,130,1127.81,108.5Z" transform="translate(0 -1.09)"/><path d="M1184.31,517.5l47-249c5.5-29,11.5-69.5,14.5-94.5h64.5l-4.5,35.5h1c20-26.5,49-41,78.5-41,53,0,78.5,42.5,78.5,92.5,0,85-56.5,163-141.5,163-20,0-37-5-45.5-10h-1l-20,103.5Zm102.5-160c8,7.5,19,12,33,12,38.5,0,68.5-55,68.5-103,0-19.5-8-40-31.5-40-27,0-52,30.5-61,78.5Z" transform="translate(0 -1.09)"/><path d="M1644.81,418.5c.5-14.5,2-31,3.5-48.5h-1.5c-22.5,40.5-53.5,54-82,54-44,0-74-34-74-85,0-82.5,54.5-170.5,175-170.5,29,0,60.5,5.5,81,12l-26,128c-6,31.5-10.5,79.5-9.5,110Zm21-193.5a111.49,111.49,0,0,0-19.5-2c-46.5,0-80.5,57-80.5,102.5,0,24,9.5,40.5,29.5,40.5,21.5,0,48-24.5,59-84.5Z" transform="translate(0 -1.09)"/><path d="M1764.3,418.5l31-165c6-31,10-58,13-79.5h64l-5,40.5h1c23-32,53.5-46,86-46,40,0,62.5,24.5,62.5,66.5,0,11-2,29.5-4,41.5l-27,142h-72L1939.3,283a165.41,165.41,0,0,0,2.5-27.5c0-17-6-29-24-29-23.5,0-51,29.5-61,83.5l-20.5,108.5Z" transform="translate(0 -1.09)"/></g></g></svg>