<?xml version="1.0" standalone="no"?>
<!DOCTYPE svg PUBLIC "-//W3C//DTD SVG 20010904//EN"
 "http://www.w3.org/TR/2001/REC-SVG-20010904/DTD/svg10.dtd">
<svg version="1.0" xmlns="http://www.w3.org/2000/svg"
 width="800.000000pt" height="800.000000pt" viewBox="0 0 800.000000 800.000000"
 preserveAspectRatio="xMidYMid meet">
<metadata>
Created by potrace 1.14, written by Peter Selinger 2001-2017
</metadata>
<g transform="translate(0.000000,800.000000) scale(0.100000,-0.100000)"
fill="#000000" stroke="none">
<path d="M1715 6363 c-311 -37 -535 -100 -741 -208 -299 -158 -526 -407 -617
-675 -85 -252 -88 -554 -8 -787 84 -245 281 -447 582 -598 167 -85 324 -136
634 -210 357 -84 478 -115 575 -146 317 -101 452 -247 419 -452 -5 -32 -20
-80 -31 -105 -48 -103 -181 -197 -343 -244 -71 -20 -100 -23 -270 -22 -163 1
-201 4 -270 23 -299 81 -444 242 -490 544 l-6 37 -486 0 -486 0 7 -97 c28
-385 150 -676 377 -902 244 -244 633 -400 1091 -438 162 -14 501 -8 651 11
723 91 1180 460 1272 1029 19 118 19 311 0 420 -81 466 -390 780 -957 971
-117 39 -275 79 -623 156 -285 63 -464 138 -560 235 -79 79 -100 135 -93 249
9 139 78 239 210 304 116 57 172 67 378 67 166 0 193 -2 260 -23 110 -35 184
-78 244 -143 66 -71 104 -146 119 -233 l11 -66 487 0 487 0 -5 63 c-29 427
-222 755 -578 985 -201 130 -481 221 -776 252 -88 9 -397 11 -464 3z"/>
<path d="M4110 4217 l0 -2094 505 0 505 1 0 843 0 843 825 0 825 0 0 -843 0
-842 505 0 505 0 0 2093 0 2092 -505 0 -505 0 0 -840 0 -840 -825 0 -825 0 0
840 0 840 -505 0 -505 0 0 -2093z"/>
</g>
</svg>
