<svg xmlns="http://www.w3.org/2000/svg" height="1em" fill="currentColor" class="ico"
    viewBox="0, 0, 400,379.4">
    <g id="svgg">
        <path
            d="M52.558 30.360 C 50.442 37.185,50.049 38.997,47.687 52.830 C 47.075 56.415,46.283 60.465,45.928 61.829 C 44.874 65.882,45.146 89.051,46.332 96.226 C 47.564 103.677,48.599 108.761,49.372 111.149 C 49.677 112.093,50.316 114.254,50.791 115.952 C 54.177 128.041,58.076 136.977,66.383 151.685 C 75.311 167.491,93.263 186.271,114.773 202.307 C 120.460 206.546,140.212 219.554,140.962 219.554 C 141.128 219.554,143.056 220.589,145.246 221.855 C 147.436 223.120,155.923 227.592,164.105 231.791 C 200.872 250.662,214.107 259.738,235.416 280.692 C 250.442 295.468,250.289 295.262,279.921 340.670 C 284.254 347.312,288.357 353.343,289.038 354.074 C 290.226 355.349,291.480 355.403,319.774 355.403 C 353.645 355.403,351.952 355.776,347.292 349.341 C 345.745 347.203,341.530 341.286,337.925 336.192 C 334.321 331.098,328.287 322.607,324.516 317.324 C 320.746 312.041,314.515 303.242,310.671 297.770 C 273.412 244.742,253.649 221.041,233.591 205.328 C 230.587 202.976,222.834 196.955,216.361 191.949 C 209.888 186.943,199.290 178.720,192.809 173.677 C 181.588 164.944,170.947 157.657,143.586 139.973 C 109.439 117.903,92.697 101.282,74.467 71.355 C 66.088 57.601,57.429 37.830,55.761 28.645 C 55.220 25.663,53.774 26.437,52.558 30.360 M99.314 45.111 L 86.449 45.313 86.449 48.376 C 86.449 65.686,103.378 86.526,120.412 90.185 C 121.544 90.428,123.705 90.929,125.214 91.297 C 133.844 93.403,137.862 93.598,174.327 93.691 C 229.813 93.833,236.986 94.235,247.341 97.784 C 275.847 107.553,295.082 143.072,286.746 170.546 C 286.394 171.705,286.106 173.251,286.106 173.982 C 286.106 185.794,271.326 205.699,259.147 210.290 C 257.338 210.972,255.948 211.886,256.059 212.321 C 256.343 213.435,286.263 248.863,287.307 249.322 C 288.645 249.911,300.368 242.973,308.925 236.528 C 319.158 228.822,331.094 215.025,335.128 206.238 C 337.860 200.288,340.309 193.909,340.309 192.742 C 340.309 192.061,340.583 191.335,340.919 191.127 C 341.255 190.920,341.688 189.744,341.882 188.514 C 342.076 187.284,342.716 184.117,343.305 181.475 C 351.608 144.208,339.518 101.274,313.855 76.897 C 305.704 69.154,297.247 64.084,281.647 57.587 C 277.754 55.966,266.405 52.819,259.691 51.499 C 257.427 51.054,254.626 50.399,253.468 50.045 C 252.309 49.690,250.557 49.400,249.575 49.400 C 248.593 49.400,246.299 49.108,244.478 48.752 C 225.119 44.963,180.180 43.836,99.314 45.111 M37.735 163.465 C 37.734 172.916,40.236 190.352,43.176 201.372 C 44.895 207.814,45.730 210.373,48.549 217.839 C 62.798 255.570,87.134 279.865,117.324 286.499 C 120.154 287.120,123.705 287.909,125.214 288.251 C 129.590 289.243,135.153 290.245,139.966 290.907 C 153.261 292.737,166.946 294.947,175.986 296.725 C 178.949 297.308,183.682 298.231,193.825 300.205 C 198.731 301.159,203.362 302.211,204.117 302.542 C 204.871 302.873,206.106 303.297,206.861 303.484 C 213.780 305.195,238.970 314.664,244.468 317.620 C 248.171 319.612,251.388 321.054,251.616 320.825 C 253.855 318.586,230.030 290.318,218.525 281.562 C 212.596 277.051,206.465 273.041,198.971 268.772 C 195.719 266.919,180.618 259.348,180.176 259.348 C 179.981 259.348,177.878 258.457,175.503 257.367 C 170.265 254.966,167.736 253.865,161.921 251.458 C 157.339 249.562,156.064 249.014,149.571 246.156 C 147.496 245.243,144.408 243.914,142.710 243.204 C 105.804 227.764,71.126 201.118,48.756 171.012 C 43.359 163.748,38.671 157.804,38.339 157.804 C 38.007 157.804,37.735 160.352,37.735 163.465 M101.544 293.258 C 101.544 304.681,140.529 334.219,166.381 342.385 C 178.497 346.211,183.645 346.928,203.431 347.545 C 232.033 348.437,261.151 350.426,268.611 351.998 C 270.497 352.395,272.890 352.896,273.928 353.110 C 276.028 353.545,276.353 352.615,274.933 350.228 C 267.893 338.393,248.722 328.355,214.065 318.360 C 212.367 317.870,209.607 317.035,207.932 316.503 C 204.655 315.464,193.292 312.383,189.365 311.470 C 188.045 311.162,183.722 310.092,179.760 309.092 C 170.155 306.667,161.292 304.694,150.600 302.601 C 136.997 299.939,132.413 298.998,130.281 298.430 C 128.916 298.067,127.005 297.770,126.033 297.770 C 125.061 297.770,124.075 297.461,123.842 297.084 C 123.609 296.707,122.670 296.398,121.756 296.398 C 120.842 296.398,116.615 295.446,112.363 294.283 C 100.640 291.078,101.544 291.163,101.544 293.258 "
        ></path>
    </g>
</svg>